<?xml version="1.0" encoding="utf-8"?>
<!-- Generator: Adobe Illustrator 27.7.0, SVG Export Plug-In . SVG Version: 6.00 Build 0)  -->
<svg version="1.1" id="Layer_1" xmlns="http://www.w3.org/2000/svg" xmlns:xlink="http://www.w3.org/1999/xlink" x="0px" y="0px"
	 viewBox="0 0 576.2 455.5" style="enable-background:new 0 0 576.2 455.5;" xml:space="preserve">
<style type="text/css">
	.st0{fill:#007864;}
	.st1{fill:none;}
</style>
<g id="Layer_2">
	<g id="Layer_3">
	</g>
</g>
<g>
	<path d="M316.1,340.8c1.6,0,2.8-1.2,2.8-2.9c0-1.6-1.1-2.6-2.8-2.6c-1.8,0-2.7,1.4-2.7,2.8C313.4,339.4,314.3,340.8,316.1,340.8
		L316.1,340.8L316.1,340.8z"/>
	<path d="M306.1,340.8c1.6,0,2.8-1.2,2.8-2.9c0-1.5-1.1-2.6-2.8-2.6c-1.9,0-2.7,1.6-2.7,2.7C303.5,339.4,304.4,340.8,306.1,340.8
		L306.1,340.8L306.1,340.8z"/>
	<g>
		<path d="M123.9,378c-0.6,0-1.5,0-2.8-0.4c-1-0.3-1.5-1.3-1.9-4.3l-4.3-29.1c-0.1-0.5-0.3-1.9-1.4-1.9c-0.9,0-1.3,1-1.5,1.5
			l-12.3,25.8L87.4,344c-0.6-1.2-1-1.8-1.8-1.8c-0.4,0-1.1,0.2-1.4,1.7l-4.7,30.7c-0.2,1.5-0.6,3.1-1.5,3.2
			c-0.6,0.1-0.9,0.1-1.3,0.1c-1.1,0-1.3,0.6-1.3,0.9c0,0.3,0.1,1.1,1.4,1.1c0.9,0,2,0,2.9-0.1c0.7,0,1.4-0.1,1.7-0.1
			c0.3,0,0.9,0,1.5,0.1c1,0,2.2,0.1,3.4,0.1c0.5,0,1.7,0,1.7-1.1c0-0.2-0.1-0.9-1.3-0.9c-0.6,0-1.2-0.1-1.8-0.2c-0.9-0.2-1-0.6-1-1
			c0-0.7,0.1-1.4,0.1-2.1l2.2-17.1c0.5,1,1,2.2,1.5,3.3c1.2,2.6,2.4,5.1,2.7,5.7c0.6,1.3,4.2,8.4,5.4,10.7l0.1,0.2
			c0.8,1.6,1.3,2.4,2,2.4c0.8,0,1.1-0.6,2.2-3l9.6-20l2.6,19.2c0.1,1,0.1,1.3,0,1.5c-0.3,0.1-0.8,0.4-0.8,1c0,0.9,1.1,1,1.9,1.1
			c1.9,0.1,8.4,0.3,9.6,0.3c1.6,0,1.8-0.8,1.8-1.1C125.2,378.3,124.7,378,123.9,378L123.9,378L123.9,378z"/>
		<path d="M158.9,371.7c-0.9,0-1,0.8-1.1,1.2c-0.3,1.8-0.8,2.6-1.8,3.1c-1.1,0.5-3,0.5-4.2,0.5c-4.8,0-5-0.7-5.1-3.4
			c0-1,0-3.4,0-5.3l0-5.6c1.6,0,5.6,0.1,6.4,0.1c1.6,0.2,2,0.8,2.2,1.4c0.1,0.4,0.1,0.8,0.1,1.2c0,0.2,0,0.3,0,0.4c0,0.6,0.4,1,1,1
			c1,0,1-1.1,1-1.5c0-0.3,0.1-2.2,0.2-3.1c0.1-1.7,0.2-2.5,0.3-3c0-0.2,0.1-0.4,0.1-0.5c0-0.6-0.4-0.9-0.9-0.9
			c-0.5,0-0.8,0.3-1.2,0.8c-0.3,0.3-0.9,0.4-1.9,0.5c-0.7,0.1-3.3,0.1-7.3,0.1v-11.8c1.4,0,5.7,0.1,6.4,0.2c2.3,0.3,2.5,0.8,2.7,1.4
			c0.2,0.5,0.2,1.2,0.2,1.5c0,1.1,0.7,1.2,1,1.2c0.2,0,0.9-0.1,1-1c0.1-0.4,0.1-1.3,0.2-2.1c0-0.5,0.1-0.9,0.1-1.1
			c0.1-1.4,0.2-2.1,0.3-2.5c0-0.2,0.1-0.4,0.1-0.5c0-0.9-0.7-1-0.8-1c-0.2,0-0.5,0.1-0.7,0.1c-0.1,0-0.2,0.1-0.2,0.1
			c-0.4,0.1-1.2,0.2-1.9,0.3c-0.6,0-4.9,0-11.8,0c-0.6,0-1.4,0-2.4,0c-1.3,0-3-0.1-4.4-0.1c-0.4,0-1.6,0-1.6,1c0,0.5,0.2,1,1.4,1
			c0.7,0,1.4,0.1,1.7,0.1c1.2,0.2,1.5,0.7,1.6,2.2c0.1,1.5,0.1,2.8,0.1,9.9v8.3c0,4.3,0,8-0.2,10c-0.2,1.5-0.4,2-0.9,2.1
			c-0.5,0.1-1,0.2-1.6,0.2c-1.1,0-1.3,0.6-1.3,0.9c0,0.4,0.2,1,1.5,1c1.1,0,2.5-0.1,3.7-0.1c0.9,0,1.7-0.1,2.2-0.1
			c1.1,0,2.2,0,3.6,0.1c2.3,0.1,5.1,0.2,9.5,0.2c1.8,0,2.7,0,3.1-1.7c0.2-1,0.6-4.2,0.6-5.4C159.8,372.7,159.8,371.7,158.9,371.7
			L158.9,371.7L158.9,371.7z"/>
		<path d="M213.8,378c-0.7,0-1.7-0.1-2.3-0.2c-0.9-0.1-1.2-0.6-1.4-2c-0.2-2-0.2-5.7-0.2-10v-8.3c0-7.2,0-8.5,0.1-9.9
			c0.1-1.7,0.5-2,1.3-2.2c0.6-0.1,0.9-0.1,1.3-0.1c0.9,0,1.4-0.3,1.4-1c0-1-1.2-1-1.6-1c-1,0-2.4,0-3.6,0.1c-0.9,0-1.8,0.1-2.3,0.1
			c-0.5,0-1.3,0-2.3-0.1c-1.4,0-3-0.1-4.5-0.1c-0.4,0-1.6,0-1.6,1c0,0.5,0.2,1,1.4,1c0.7,0,1.4,0,1.7,0.1c1.2,0.2,1.5,0.7,1.6,2.2
			c0.1,1.5,0.1,2.8,0.1,9.9v0.8h-17.4v-0.8c0-7.2,0-8.5,0.1-9.9c0.1-1.7,0.5-2,1.3-2.2c0.6-0.1,0.9-0.1,1.3-0.1c0.9,0,1.4-0.3,1.4-1
			c0-1-1.2-1-1.6-1c-1,0-2.4,0-3.6,0.1c-0.9,0-1.8,0.1-2.3,0.1c-0.5,0-1.3,0-2.3-0.1c-1.4,0-3-0.1-4.5-0.1c-0.4,0-1.5,0-1.5,1
			c0,0.5,0.2,1,1.4,1c0.7,0,1.4,0,1.7,0.1c1.2,0.2,1.5,0.7,1.6,2.2c0.1,1.5,0.1,2.8,0.1,9.9v8.3c0,4.3,0,8-0.2,9.9
			c-0.2,1.5-0.4,2-0.9,2.1c-0.5,0.1-1,0.2-1.6,0.2c-1.2,0-1.3,0.7-1.3,0.9c0,0.4,0.2,1,1.5,1c1.1,0,2.5,0,3.7-0.1
			c0.9,0,1.7-0.1,2.2-0.1c0.5,0,1.3,0,2.2,0.1c1.4,0,3.3,0.1,5.1,0.1c1.4,0,1.5-0.8,1.5-1c0-0.2-0.1-0.9-1.3-0.9
			c-0.7,0-1.7-0.1-2.3-0.2c-0.9-0.1-1.2-0.6-1.3-2c-0.2-2-0.2-5.7-0.2-10v-3.9h17.4v3.9c0,4.3,0,8-0.2,10c-0.2,1.5-0.4,2-0.9,2.1
			c-0.5,0.1-1,0.2-1.6,0.2c-1.2,0-1.3,0.7-1.3,0.9c0,0.5,0.3,1,1.5,1c1,0,2.5,0,3.7-0.1c0.9,0,1.7-0.1,2.2-0.1c0.5,0,1.3,0,2.2,0.1
			c1.4,0,3.3,0.1,5.1,0.1c1.4,0,1.5-0.8,1.5-1C215.1,378.7,215,378,213.8,378L213.8,378L213.8,378z"/>
		<path d="M244.2,378c-0.7,0-1.7-0.1-2.4-0.2c-1-0.1-1.3-0.5-1.4-1.8c-0.2-2-0.2-5.6-0.2-10.3v-8.3c0-7.2,0-8.5,0.1-9.9
			c0.1-1.7,0.5-2,1.3-2.2c0.6-0.1,0.9-0.1,1.3-0.1c1.2,0,1.3-0.6,1.3-1c0-0.6-0.5-0.9-1.6-0.9c-1,0-2.3,0-3.5,0.1
			c-0.9,0-1.8,0.1-2.3,0.1c-0.6,0-1.6,0-2.7-0.1c-1.2,0-2.5-0.1-3.5-0.1c-0.5,0-1.7,0-1.7,0.9c0,0.4,0.2,1,1.3,1
			c0.6,0,1.2,0.1,1.6,0.2c0.5,0.1,1.1,0.4,1.2,2.1c0.1,1.5,0.1,2.8,0.1,9.9v8.3c0,4.6,0,8.3-0.2,10.2c-0.2,1.5-0.4,1.8-0.9,1.9
			c-0.3,0.1-0.9,0.2-1.6,0.2c-1.2,0-1.3,0.6-1.3,0.9c0,0.3,0.1,1,1.5,1c1.1,0,2.5-0.1,3.8-0.1c0.9,0,1.7-0.1,2.2-0.1
			c0.5,0,1.3,0,2.2,0.1c1.5,0,3.3,0.1,5.2,0.1c1.1,0,1.5-0.5,1.5-1C245.6,378.7,245.5,378,244.2,378L244.2,378L244.2,378z"/>
		<path d="M284.2,371.5c-0.6,0-1,0.4-1.1,1.2c-0.1,0.8-0.6,2-1.1,2.5c-1,1.1-2.6,1.1-5.1,1.1c-3.6,0-4.7-0.3-5.3-0.9
			c-0.8-0.7-0.8-4.3-0.8-9.7v-8.3c0-7.2,0-8.5,0.1-9.9c0.1-1.7,0.5-2,1.3-2.2c0.6-0.1,1.3-0.1,1.7-0.1c0.9,0,1.4-0.3,1.4-1
			c0-1-1.1-1-1.5-1c-1,0-2.6,0-3.9,0.1c-1.1,0-2,0.1-2.5,0.1c-0.5,0-1.4,0-2.4-0.1c-1.3,0-2.8-0.1-4.1-0.1c-0.5,0-1.6,0-1.6,1
			c0,0.4,0.2,1,1.4,1c0.6,0,1.1,0,1.5,0.1c1.2,0.3,1.5,0.7,1.6,2.2c0.1,1.5,0.1,2.8,0.1,9.9v8.3c0,4.3,0,8-0.2,10
			c-0.2,1.5-0.4,2-0.9,2.1c-0.3,0.1-0.9,0.2-1.6,0.2c-1.2,0-1.3,0.6-1.3,0.9c0,0.4,0.2,1,1.5,1c1.1,0,2.5,0,3.8-0.1
			c0.9,0,1.7-0.1,2.2-0.1c1.6,0,3.1,0.1,4.9,0.1c2.3,0.1,5,0.2,8.9,0.2c2.4,0,3.1-0.2,3.5-1.7c0.4-1.4,0.7-5,0.7-5.6
			C285.1,372.5,285.1,371.5,284.2,371.5L284.2,371.5L284.2,371.5z"/>
		<path d="M329.8,378c-0.6,0-1.3-0.1-1.8-0.2c-0.6-0.1-1.9-0.4-3.7-4.8c-1.7-4-4.9-12.1-7.5-18.5c-2-5-3.7-9.3-4.2-10.4
			c-0.5-1.1-0.9-1.8-1.7-1.8c-0.9,0-1.3,0.9-1.8,2.2l-11.8,29.5c-1,2.4-1.8,3.6-3.5,3.9c-0.4,0-1,0.1-1.4,0.1c-1,0-1.1,0.7-1.1,0.9
			c0,1,1.1,1,1.5,1c1.7,0,3.4-0.1,4.5-0.1c0.5,0,0.9,0,1,0c0.7,0,1.6,0,2.4,0.1c0.9,0,1.8,0.1,2.6,0.1c1.1,0,1.4-0.6,1.4-1
			c0-0.9-0.9-0.9-1.3-0.9h-0.7c-1.3,0-1.3-0.5-1.3-0.9c0-0.5,0.2-1.6,0.7-2.7l2.5-6.7l10.3,0l3.8,10c0,0.1,0.1,0.2,0,0.3
			c-0.3,0-1.2,0.1-1.2,1c0,0.8,0.9,0.9,1.7,0.9l0.2,0c3.8,0.1,7.2,0.1,8.9,0.1c1.5,0,2.7,0,2.7-1C331,378.5,330.7,378,329.8,378
			L329.8,378L329.8,378z M305.7,364.2l3.9-10.4l3.8,10.4H305.7L305.7,364.2z"/>
		<path d="M354.9,378c-0.7,0-1.7-0.1-2.4-0.2c-1-0.1-1.3-0.5-1.4-1.8c-0.2-2-0.2-5.6-0.2-10.3v-8.3c0-7.2,0-8.5,0.1-9.9
			c0.1-1.7,0.5-2,1.3-2.2c0.5-0.1,0.9-0.1,1.3-0.1c1.2,0,1.3-0.6,1.3-1c0-0.6-0.5-0.9-1.6-0.9c-1,0-2.3,0-3.5,0.1
			c-0.9,0-1.8,0.1-2.3,0.1c-0.6,0-1.6,0-2.7-0.1c-1.2,0-2.5-0.1-3.5-0.1c-0.5,0-1.7,0-1.7,0.9c0,0.4,0.2,1,1.3,1
			c0.6,0,1.2,0.1,1.6,0.2c0.5,0.1,1.1,0.4,1.2,2.1c0.1,1.5,0.1,2.8,0.1,9.9v8.3c0,4.6,0,8.3-0.2,10.2c-0.1,1.4-0.4,1.8-0.9,1.9
			c-0.3,0.1-0.9,0.2-1.6,0.2c-1.2,0-1.3,0.6-1.3,0.9c0,0.3,0.2,1,1.5,1c1.1,0,2.5-0.1,3.8-0.1c0.9,0,1.7-0.1,2.2-0.1
			c0.5,0,1.3,0,2.2,0.1c1.5,0,3.3,0.1,5.2,0.1c1.1,0,1.5-0.5,1.5-1C356.2,378.7,356.1,378,354.9,378L354.9,378L354.9,378z"/>
		<path d="M407.2,343.3c-1.6,0-2.9,0.1-3.8,0.1c-0.4,0-0.7,0-0.8,0c-0.4,0-0.9,0-1.6,0c-1.1,0-2.5-0.1-4-0.1c-0.6,0-1.8,0-1.8,1
			c0,0.4,0.2,1,1.3,1c0.6,0,1.7,0,2.3,0.2c0.7,0.3,1.2,0.7,1.3,3.7l0.4,20c-0.6-0.7-1.6-1.7-2.7-2.8c-2.3-2.4-5.1-5.4-6.9-7.2
			c-7.2-7.1-14.5-15-14.6-15.1l-0.4-0.5c-0.6-0.7-1.1-1.2-1.7-1.2c-1.2,0-1.2,1.6-1.2,2.2l-0.4,27.9c0,4-0.2,5.1-1.1,5.3
			c-0.5,0.1-1.2,0.2-2,0.2c-1.2,0-1.3,0.7-1.3,0.9c0,1,1.2,1,1.6,1c1.7,0,3.3-0.1,4.3-0.1c0.4,0,0.7,0,0.8,0c0.3,0,0.7,0,1.3,0
			c1,0,2.5,0.1,4.5,0.1c0.4,0,1.6,0,1.6-1c0-0.4-0.2-0.9-1.4-0.9c-0.7,0-1.5,0-2.3-0.3c-0.5-0.2-1.2-0.8-1.3-4.7l-0.5-18.4
			c0.1,0.1,0.1,0.2,0.2,0.2c2,2.2,6.1,6.7,10.1,10.7c2,2,4.2,4.2,6.3,6.3c3,3,5.9,5.9,7.6,7.5c0.6,0.6,1.3,1.2,2,1.2
			c1.2,0,1.2-1.5,1.2-2l0.5-29.7c0-2.7,0.5-3.2,1.3-3.5c0.5-0.1,0.8-0.1,1.3-0.1c1.3,0,1.4-0.7,1.4-1
			C408.8,343.3,407.7,343.3,407.2,343.3L407.2,343.3L407.2,343.3z"/>
		<path d="M446.5,371.7c-0.9,0-1,0.8-1.1,1.2c-0.3,1.8-0.8,2.6-1.8,3.1c-1.1,0.5-3.1,0.5-4.2,0.5c-4.8,0-5-0.7-5.1-3.4
			c0-1,0-3.4,0-5.3l0-5.6c1.6,0,5.6,0.1,6.4,0.1c1.6,0.2,2,0.8,2.2,1.4c0.1,0.4,0.1,0.8,0.1,1.2c0,0.2,0,0.3,0,0.4c0,0.6,0.4,1,1,1
			c1,0,1-1.1,1-1.5c0-0.3,0.1-2.2,0.2-3.1c0.1-1.7,0.2-2.5,0.3-3c0-0.2,0.1-0.4,0.1-0.5c0-0.6-0.4-0.9-0.9-0.9
			c-0.5,0-0.8,0.3-1.2,0.8c-0.3,0.3-0.9,0.4-1.9,0.5c-0.7,0.1-3.3,0.1-7.3,0.1l0-11.8c1.4,0,5.7,0.1,6.4,0.2
			c2.3,0.3,2.5,0.8,2.7,1.4c0.2,0.5,0.2,1.2,0.2,1.5c0,1.1,0.6,1.2,1,1.2c0.3,0,0.9-0.1,1-1c0.1-0.4,0.1-1.3,0.2-2.1
			c0-0.5,0-0.9,0.1-1.1c0.1-1.4,0.2-2.1,0.3-2.5c0-0.2,0.1-0.4,0.1-0.5c0-0.9-0.7-1-0.9-1c-0.2,0-0.5,0.1-0.6,0.1
			c-0.1,0-0.2,0.1-0.3,0.1c-0.4,0.1-1.2,0.2-1.9,0.3c-0.6,0-4.9,0-11.8,0c-0.6,0-1.4,0-2.4,0c-1.4,0-3-0.1-4.4-0.1
			c-0.4,0-1.6,0-1.6,1c0,0.5,0.2,1,1.4,1c0.7,0,1.4,0.1,1.7,0.1c1.2,0.2,1.5,0.7,1.6,2.2c0.1,1.5,0.1,2.8,0.1,9.9v8.3
			c0,4.3,0,8-0.2,9.9c-0.2,1.5-0.4,2-0.9,2.1c-0.3,0.1-0.9,0.2-1.6,0.2c-1.2,0-1.3,0.7-1.3,0.9c0,0.4,0.2,1,1.5,1
			c1.1,0,2.5-0.1,3.8-0.1c0.9,0,1.7-0.1,2.2-0.1c1.1,0,2.2,0,3.6,0.1c2.3,0.1,5.1,0.2,9.5,0.2c1.8,0,2.7,0,3.1-1.7
			c0.2-1,0.6-4.3,0.6-5.4C447.5,372.7,447.5,371.7,446.5,371.7L446.5,371.7L446.5,371.7z"/>
		<path d="M499.1,343.3c-1.6,0-2.9,0.1-3.8,0.1c-0.4,0-0.7,0-0.8,0c-0.4,0-0.9,0-1.6,0c-1.1,0-2.5-0.1-4-0.1c-0.6,0-1.8,0-1.8,1
			c0,0.4,0.2,1,1.3,1c0.6,0,1.7,0,2.3,0.2c0.7,0.3,1.2,0.7,1.2,3.7l0.4,20c-0.6-0.7-1.6-1.6-2.6-2.7c-2.3-2.4-5.1-5.4-7-7.2
			c-7.1-7-14.5-15-14.6-15.1c-0.2-0.2-0.3-0.3-0.4-0.5c-0.6-0.6-1-1.2-1.7-1.2c-1.2,0-1.2,1.6-1.2,2.2l-0.4,27.9c0,4-0.3,5.1-1,5.3
			c-0.5,0.1-1.2,0.2-2,0.2c-1.1,0-1.3,0.6-1.3,0.9c0,1,1.2,1,1.6,1c1.7,0,3.3-0.1,4.3-0.1c0.4,0,0.7,0,0.8,0c0.3,0,0.7,0,1.3,0
			c1.1,0,2.5,0.1,4.5,0.1c0.4,0,1.6,0,1.6-1c0-0.4-0.2-0.9-1.4-0.9c-0.7,0-1.5,0-2.3-0.3c-0.5-0.2-1.2-0.8-1.3-4.7l-0.5-18.4
			c0.1,0.1,0.2,0.2,0.3,0.3c2,2.2,6.1,6.7,10.1,10.6c2,1.9,4.1,4.1,6.1,6.1c3.1,3.1,6,6,7.7,7.7c0.6,0.6,1.3,1.2,2,1.2
			c1.2,0,1.2-1.5,1.2-2l0.5-29.7c0-2.7,0.4-3.2,1.3-3.5c0.5-0.1,0.8-0.1,1.3-0.1c1.3,0,1.4-0.7,1.4-1
			C500.7,343.3,499.6,343.3,499.1,343.3L499.1,343.3L499.1,343.3z"/>
	</g>
</g>
<path class="st0" d="M135.6,298.9c0,0,39.1-14.6,80-64.3c0,0-7.2-8.3-7.2-8.3C182.7,260.2,155.9,285.4,135.6,298.9 M259.5,134
	c0,0,16-20.4,16.1-20.5c-11.1-18.3-21.9-29-37.2-34c-5.7-1.9-30.9-8.2-51,5.6c-27.8,19.1-30.9,52.7-1.9,87.5
	c28.5,34.3,92.2,105.4,99.5,116.4c0,0,26.5-42.5,37.7-59.7c0,0-24.4,24.3-24.8,24.7c-1.4-1.7-84.4-96.2-88-99.9
	c-32.4-33-16.8-63.6,2.5-65.4c18.9-1.8,28.5,15.3,37.8,29.5C257.2,129.1,259.5,134,259.5,134 M389.1,139.6c5.8-15.8,4-33.2-8.5-47
	c-15.3-17-41.9-18.8-58.2-7.8c-8.1,5.5-14.3,11.6-24.3,24.1c-8.7,10.9-50.8,65.4-50.8,65.3l7.4,8c9-10.7,42.7-55.1,49.5-62.9
	c7-8,14.9-17.8,26.6-19.1c22.4-2.4,43.1,16,36,45.3c-3.4,13.7-21.5,47.2-21.5,47.2C356.8,177.4,383.6,154.5,389.1,139.6
	 M440.7,264.7C422,277,392.8,254,367.9,229.1c-26.1-26.2-59.7-67.9-67.4-77.7c-0.5-0.6-0.8-1-1.1-1.4L283,171.2
	c0.3,0.4,0.7,0.9,1,1.3c37.8,49.1,98.7,119.3,125.7,115.9L440.7,264.7L440.7,264.7L440.7,264.7z"/>
<rect x="0" class="st1" width="576.2" height="455.5"/>
</svg>
